G04 #@! TF.GenerationSoftware,KiCad,Pcbnew,(6.0.2-0)*
G04 #@! TF.CreationDate,2022-08-02T07:49:56-03:00*
G04 #@! TF.ProjectId,Modulo-completo,4d6f6475-6c6f-42d6-936f-6d706c65746f,rev?*
G04 #@! TF.SameCoordinates,Original*
G04 #@! TF.FileFunction,Legend,Top*
G04 #@! TF.FilePolarity,Positive*
%FSLAX46Y46*%
G04 Gerber Fmt 4.6, Leading zero omitted, Abs format (unit mm)*
G04 Created by KiCad (PCBNEW (6.0.2-0)) date 2022-08-02 07:49:56*
%MOMM*%
%LPD*%
G01*
G04 APERTURE LIST*
%ADD10C,0.120000*%
%ADD11C,0.150000*%
G04 APERTURE END LIST*
D10*
X152500000Y-86846000D02*
X152500000Y-92396000D01*
X155450000Y-86846000D02*
X152500000Y-86846000D01*
X158000000Y-85796000D02*
X156750000Y-85796000D01*
X151740000Y-98706000D02*
X157710000Y-98706000D01*
X156950000Y-96896000D02*
X156950000Y-98696000D01*
X152500000Y-97946000D02*
X152500000Y-92396000D01*
X157700000Y-98696000D02*
X157700000Y-96896000D01*
X157700000Y-86096000D02*
X156950000Y-86096000D01*
X157710000Y-98706000D02*
X157710000Y-86086000D01*
X156950000Y-89396000D02*
X156950000Y-95396000D01*
X157700000Y-89396000D02*
X156950000Y-89396000D01*
X155450000Y-86096000D02*
X155450000Y-86846000D01*
X157710000Y-86086000D02*
X151740000Y-86086000D01*
X156950000Y-87896000D02*
X157700000Y-87896000D01*
X155450000Y-98696000D02*
X155450000Y-97946000D01*
X151740000Y-86086000D02*
X151740000Y-98706000D01*
X156950000Y-95396000D02*
X157700000Y-95396000D01*
X157700000Y-95396000D02*
X157700000Y-89396000D01*
X155450000Y-97946000D02*
X152500000Y-97946000D01*
X156950000Y-98696000D02*
X157700000Y-98696000D01*
X156950000Y-86096000D02*
X156950000Y-87896000D01*
X157700000Y-87896000D02*
X157700000Y-86096000D01*
X157700000Y-96896000D02*
X156950000Y-96896000D01*
X158000000Y-87046000D02*
X158000000Y-85796000D01*
X149718000Y-89507000D02*
G75*
G03*
X149718000Y-89507000I-4120000J0D01*
G01*
X116796000Y-115792000D02*
X117126000Y-115792000D01*
X119206000Y-109252000D02*
X119536000Y-109252000D01*
X119536000Y-115792000D02*
X119206000Y-115792000D01*
X119536000Y-109252000D02*
X119536000Y-115792000D01*
X116796000Y-109252000D02*
X116796000Y-115792000D01*
X117126000Y-109252000D02*
X116796000Y-109252000D01*
X131794000Y-124560000D02*
X131794000Y-124230000D01*
X125254000Y-121820000D02*
X131794000Y-121820000D01*
X125254000Y-124230000D02*
X125254000Y-124560000D01*
X125254000Y-122150000D02*
X125254000Y-121820000D01*
X131794000Y-121820000D02*
X131794000Y-122150000D01*
X125254000Y-124560000D02*
X131794000Y-124560000D01*
X148622000Y-100044000D02*
X148292000Y-100044000D01*
X148292000Y-100044000D02*
X148292000Y-93504000D01*
X151032000Y-93504000D02*
X150702000Y-93504000D01*
X150702000Y-100044000D02*
X151032000Y-100044000D01*
X148292000Y-93504000D02*
X148622000Y-93504000D01*
X151032000Y-100044000D02*
X151032000Y-93504000D01*
X144616000Y-97826000D02*
X144772000Y-97826000D01*
X146932000Y-97826000D02*
X147088000Y-97826000D01*
X144773392Y-94593665D02*
G75*
G03*
X144616484Y-97826000I1078609J-1672335D01*
G01*
X146932000Y-97306961D02*
G75*
G03*
X146931837Y-95224870I-1080000J1040961D01*
G01*
X144772163Y-95224870D02*
G75*
G03*
X144772000Y-97306961I1079837J-1041130D01*
G01*
X147087516Y-97826000D02*
G75*
G03*
X146930608Y-94593665I-1235517J1560000D01*
G01*
X154936000Y-116586000D02*
X154936000Y-115256000D01*
X154936000Y-117856000D02*
X154936000Y-125536000D01*
X154936000Y-125536000D02*
X157596000Y-125536000D01*
X154936000Y-115256000D02*
X156266000Y-115256000D01*
X154936000Y-117856000D02*
X157596000Y-117856000D01*
X157596000Y-117856000D02*
X157596000Y-125536000D01*
X154936000Y-112776000D02*
X157596000Y-112776000D01*
X157596000Y-112776000D02*
X157596000Y-115376000D01*
X154936000Y-111506000D02*
X154936000Y-110176000D01*
X154936000Y-112776000D02*
X154936000Y-115376000D01*
X154936000Y-110176000D02*
X156266000Y-110176000D01*
X154936000Y-115376000D02*
X157596000Y-115376000D01*
X113748000Y-107418000D02*
X116488000Y-107418000D01*
X113748000Y-114658000D02*
X113748000Y-107418000D01*
X113748000Y-114658000D02*
X116488000Y-114658000D01*
X116488000Y-114658000D02*
X116488000Y-107418000D01*
X123524000Y-97497000D02*
X123524000Y-97482000D01*
X123524000Y-99622000D02*
X123524000Y-99607000D01*
X118984000Y-97497000D02*
X118984000Y-97482000D01*
X123524000Y-99622000D02*
X118984000Y-99622000D01*
X123524000Y-97482000D02*
X118984000Y-97482000D01*
X118984000Y-99622000D02*
X118984000Y-99607000D01*
X113297000Y-110617000D02*
G75*
G03*
X113297000Y-110617000I-4120000J0D01*
G01*
X139883000Y-87997000D02*
X139883000Y-91391000D01*
X134458000Y-87997000D02*
X135149000Y-87997000D01*
X129378000Y-87997000D02*
X130069000Y-87997000D01*
X132263000Y-87997000D02*
X132263000Y-91391000D01*
X136998000Y-87997000D02*
X137689000Y-87997000D01*
X120773000Y-82756000D02*
X141213000Y-82756000D01*
X129723000Y-87997000D02*
X129723000Y-91391000D01*
X124643000Y-87997000D02*
X124643000Y-91391000D01*
X126838000Y-87997000D02*
X127529000Y-87997000D01*
X134803000Y-87997000D02*
X134803000Y-91391000D01*
X120773000Y-87997000D02*
X122449000Y-87997000D01*
X127183000Y-87997000D02*
X127183000Y-91391000D01*
X131918000Y-87997000D02*
X132609000Y-87997000D01*
X122103000Y-87997000D02*
X122103000Y-91406000D01*
X132843000Y-82756000D02*
X132843000Y-84596000D01*
X120773000Y-84596000D02*
X141213000Y-84596000D01*
X137343000Y-87997000D02*
X137343000Y-91391000D01*
X120773000Y-82756000D02*
X120773000Y-87997000D01*
X139538000Y-87997000D02*
X141213000Y-87997000D01*
X141213000Y-82756000D02*
X141213000Y-87997000D01*
X129144000Y-82756000D02*
X129144000Y-84596000D01*
X124298000Y-87997000D02*
X124989000Y-87997000D01*
X125239000Y-94972000D02*
X125224000Y-94972000D01*
X127364000Y-99512000D02*
X127349000Y-99512000D01*
X127364000Y-94972000D02*
X127364000Y-99512000D01*
X125239000Y-99512000D02*
X125224000Y-99512000D01*
X125224000Y-94972000D02*
X125224000Y-99512000D01*
X127364000Y-94972000D02*
X127349000Y-94972000D01*
X129676000Y-118618000D02*
G75*
G03*
X129676000Y-118618000I-2620000J0D01*
G01*
X121642000Y-103410000D02*
X121312000Y-103410000D01*
X123722000Y-103410000D02*
X124052000Y-103410000D01*
X121312000Y-109950000D02*
X121642000Y-109950000D01*
X124052000Y-109950000D02*
X123722000Y-109950000D01*
X124052000Y-103410000D02*
X124052000Y-109950000D01*
X121312000Y-103410000D02*
X121312000Y-109950000D01*
X130144000Y-103886000D02*
G75*
G03*
X130144000Y-103886000I-2620000J0D01*
G01*
X144356000Y-100584000D02*
G75*
G03*
X144356000Y-100584000I-4120000J0D01*
G01*
X112498000Y-103732000D02*
X112498000Y-100992000D01*
X119738000Y-103732000D02*
X119738000Y-100992000D01*
X119738000Y-100992000D02*
X112498000Y-100992000D01*
X119738000Y-103732000D02*
X112498000Y-103732000D01*
X125104000Y-114570000D02*
G75*
G03*
X125104000Y-114570000I-2620000J0D01*
G01*
X116172000Y-115288000D02*
X116172000Y-118088000D01*
X101572000Y-124488000D02*
X101572000Y-115288000D01*
X114672000Y-115048000D02*
X116412000Y-115048000D01*
X116412000Y-115048000D02*
X116412000Y-116788000D01*
X101572000Y-115288000D02*
X116172000Y-115288000D01*
X116172000Y-121688000D02*
X116172000Y-124488000D01*
X116172000Y-124488000D02*
X114172000Y-124488000D01*
X110572000Y-124488000D02*
X101572000Y-124488000D01*
X154936000Y-100016000D02*
X156266000Y-100016000D01*
X154936000Y-101346000D02*
X154936000Y-100016000D01*
X157596000Y-102616000D02*
X157596000Y-105216000D01*
X154936000Y-105216000D02*
X157596000Y-105216000D01*
X154936000Y-102616000D02*
X154936000Y-105216000D01*
X154936000Y-102616000D02*
X157596000Y-102616000D01*
X135974000Y-98044000D02*
G75*
G03*
X135974000Y-98044000I-4120000J0D01*
G01*
X154936000Y-107696000D02*
X154936000Y-110296000D01*
X157596000Y-107696000D02*
X157596000Y-110296000D01*
X154936000Y-105096000D02*
X156266000Y-105096000D01*
X154936000Y-106426000D02*
X154936000Y-105096000D01*
X154936000Y-107696000D02*
X157596000Y-107696000D01*
X154936000Y-110296000D02*
X157596000Y-110296000D01*
D11*
X104353000Y-89032500D02*
X101753000Y-89032500D01*
X101753000Y-89032500D02*
X101753000Y-95232500D01*
X104353000Y-85482500D02*
X116503000Y-85482500D01*
X116503000Y-98482500D02*
X104353000Y-98482500D01*
X104353000Y-98482500D02*
X104353000Y-85482500D01*
X116503000Y-85482500D02*
X116503000Y-98482500D01*
X101753000Y-95232500D02*
X104353000Y-95232500D01*
D10*
X113062000Y-104294000D02*
X119602000Y-104294000D01*
X119602000Y-104294000D02*
X119602000Y-104624000D01*
X113062000Y-106704000D02*
X113062000Y-107034000D01*
X119602000Y-107034000D02*
X119602000Y-106704000D01*
X113062000Y-104624000D02*
X113062000Y-104294000D01*
X113062000Y-107034000D02*
X119602000Y-107034000D01*
X119968000Y-87027000D02*
X120298000Y-87027000D01*
X117558000Y-87027000D02*
X117558000Y-93567000D01*
X120298000Y-87027000D02*
X120298000Y-93567000D01*
X117888000Y-87027000D02*
X117558000Y-87027000D01*
X117558000Y-93567000D02*
X117888000Y-93567000D01*
X120298000Y-93567000D02*
X119968000Y-93567000D01*
M02*
