M48
INCH,TZ
T1C0.0315
T2C0.0315
T3C0.0354
T4C0.0374
T5C0.0394
T6C0.0551
T7C0.1181
%
G90
G05
T1
X51722Y-46000
X54022Y-41500
X54022Y-42450
X54022Y-43348
T2
X42294Y-43550
X43672Y-43550
X44300Y-41600
X44731Y-40300
X45322Y-42731
X45322Y-44700
X46522Y-42800
X46522Y-45800
X46700Y-40300
X46754Y-38800
X46822Y-34050
X46822Y-37050
X47300Y-41600
X48222Y-44713
X48222Y-45500
X48300Y-40500
X48300Y-43500
X48722Y-38800
X49100Y-48500
X49628Y-46700
X49722Y-37300
X49722Y-39269
X49813Y-40900
X50416Y-46700
X50600Y-40900
X51222Y-38600
X52100Y-48500
X52600Y-38600
X54522Y-39600
X55221Y-45649
X55221Y-46357
X55221Y-47066
X55900Y-39600
X55930Y-45649
X55930Y-46357
X55930Y-47066
X56638Y-45649
X56638Y-46357
X56638Y-47066
X57322Y-34550
X57322Y-35928
X58922Y-36600
X58922Y-39600
T3
X57422Y-37400
X57422Y-38400
T4
X61122Y-34900
X61122Y-35884
X61122Y-36869
X61122Y-37853
T5
X48072Y-36400
X48572Y-34400
X49072Y-36400
X49572Y-34400
X50072Y-36400
X50572Y-34400
X51072Y-36400
X51572Y-34400
X52072Y-36400
X52572Y-34400
X53072Y-36400
X53572Y-34400
X54072Y-36400
X54572Y-34400
X55072Y-36400
X61522Y-39900
X61522Y-40900
X61522Y-41900
X61522Y-42900
X61522Y-43900
X61522Y-44900
X61522Y-45900
X61522Y-46900
X61522Y-47900
X61522Y-48900
T6
X42600Y-36273
X44568Y-34304
X44568Y-35288
X44568Y-37257
X44568Y-38241
T7
X43060Y-47200
X44241Y-49050
X45422Y-47200
T0
M30
