G04 #@! TF.GenerationSoftware,KiCad,Pcbnew,(6.0.2-0)*
G04 #@! TF.CreationDate,2022-08-02T07:49:56-03:00*
G04 #@! TF.ProjectId,Modulo-completo,4d6f6475-6c6f-42d6-936f-6d706c65746f,rev?*
G04 #@! TF.SameCoordinates,Original*
G04 #@! TF.FileFunction,Legend,Bot*
G04 #@! TF.FilePolarity,Positive*
%FSLAX46Y46*%
G04 Gerber Fmt 4.6, Leading zero omitted, Abs format (unit mm)*
G04 Created by KiCad (PCBNEW (6.0.2-0)) date 2022-08-02 07:49:56*
%MOMM*%
%LPD*%
G01*
G04 APERTURE LIST*
%ADD10C,0.120000*%
G04 APERTURE END LIST*
D10*
X131855000Y-119372748D02*
X131855000Y-119895252D01*
X130385000Y-119372748D02*
X130385000Y-119895252D01*
X127818000Y-108883000D02*
X125618000Y-108883000D01*
X127818000Y-115653000D02*
X130018000Y-115653000D01*
X127818000Y-115653000D02*
X124218000Y-115653000D01*
X127818000Y-108883000D02*
X130018000Y-108883000D01*
X128862752Y-124179000D02*
X128340248Y-124179000D01*
X128862752Y-122709000D02*
X128340248Y-122709000D01*
X134561000Y-126798000D02*
X152561000Y-126798000D01*
X134561000Y-133098000D02*
X152561000Y-133098000D01*
X134561000Y-101598000D02*
X134561000Y-133098000D01*
X152561000Y-101598000D02*
X134561000Y-101598000D01*
X152561000Y-133098000D02*
X152561000Y-101598000D01*
X116986000Y-124024000D02*
X116986000Y-120264000D01*
X116986000Y-120264000D02*
X118246000Y-120264000D01*
X123806000Y-120264000D02*
X122546000Y-120264000D01*
X123806000Y-126274000D02*
X123806000Y-120264000D01*
X123314000Y-108442000D02*
X126114000Y-108442000D01*
X123214000Y-105942000D02*
X123814000Y-105942000D01*
X122664000Y-107142000D02*
X122664000Y-107742000D01*
X123514000Y-106242000D02*
X123214000Y-105942000D01*
X123514000Y-106242000D02*
X123814000Y-105942000D01*
X126114000Y-106442000D02*
X123314000Y-106442000D01*
X126764000Y-107742000D02*
X126764000Y-107142000D01*
X126064000Y-108442000D02*
G75*
G03*
X126764000Y-107742000I1J699999D01*
G01*
X122664000Y-107742000D02*
G75*
G03*
X123364000Y-108442000I699999J-1D01*
G01*
X126764000Y-107142000D02*
G75*
G03*
X126064000Y-106442000I-699999J1D01*
G01*
X123364000Y-106442000D02*
G75*
G03*
X122664000Y-107142000I-1J-699999D01*
G01*
X131056748Y-105891000D02*
X131579252Y-105891000D01*
X131056748Y-104421000D02*
X131579252Y-104421000D01*
X138351748Y-89435000D02*
X138874252Y-89435000D01*
X138351748Y-90905000D02*
X138874252Y-90905000D01*
X128562000Y-107142000D02*
X128562000Y-107742000D01*
X132012000Y-106442000D02*
X129212000Y-106442000D01*
X129112000Y-105942000D02*
X129712000Y-105942000D01*
X129212000Y-108442000D02*
X132012000Y-108442000D01*
X129412000Y-106242000D02*
X129112000Y-105942000D01*
X129412000Y-106242000D02*
X129712000Y-105942000D01*
X132662000Y-107742000D02*
X132662000Y-107142000D01*
X131962000Y-108442000D02*
G75*
G03*
X132662000Y-107742000I1J699999D01*
G01*
X132662000Y-107142000D02*
G75*
G03*
X131962000Y-106442000I-699999J1D01*
G01*
X128562000Y-107742000D02*
G75*
G03*
X129262000Y-108442000I699999J-1D01*
G01*
X129262000Y-106442000D02*
G75*
G03*
X128562000Y-107142000I-1J-699999D01*
G01*
X126738748Y-119915000D02*
X127261252Y-119915000D01*
X126738748Y-121385000D02*
X127261252Y-121385000D01*
M02*
