%TF.GenerationSoftware,KiCad,Pcbnew,5.1.6-c6e7f7d~87~ubuntu20.04.1*%
%TF.CreationDate,2021-01-23T09:42:22-03:00*%
%TF.ProjectId,Modulo-completo,4d6f6475-6c6f-42d6-936f-6d706c65746f,rev?*%
%TF.SameCoordinates,Original*%
%TF.FileFunction,Paste,Bot*%
%TF.FilePolarity,Positive*%
%FSLAX46Y46*%
G04 Gerber Fmt 4.6, Leading zero omitted, Abs format (unit mm)*
G04 Created by KiCad (PCBNEW 5.1.6-c6e7f7d~87~ubuntu20.04.1) date 2021-01-23 09:42:22*
%MOMM*%
%LPD*%
G01*
G04 APERTURE LIST*
%ADD10R,0.600000X1.700000*%
%ADD11R,7.500000X5.200000*%
%ADD12R,1.500000X2.000000*%
%ADD13R,3.800000X2.000000*%
%ADD14O,3.000000X0.900000*%
%ADD15R,1.000000X1.000000*%
G04 APERTURE END LIST*
D10*
%TO.C,U1*%
X30398000Y-140314500D03*
X31198000Y-140314500D03*
X31998000Y-140314500D03*
X32798000Y-140314500D03*
X33598000Y-140314500D03*
X34398000Y-140314500D03*
X35198000Y-140314500D03*
X35998000Y-140314500D03*
X36798000Y-140314500D03*
X37598000Y-140314500D03*
X38398000Y-140314500D03*
X39198000Y-140314500D03*
X39198000Y-130449500D03*
X38398000Y-130449500D03*
X37598000Y-130449500D03*
X36798000Y-130449500D03*
X35998000Y-130449500D03*
X35198000Y-130449500D03*
X34398000Y-130449500D03*
X33598000Y-130449500D03*
X32798000Y-130449500D03*
X31998000Y-130449500D03*
X31198000Y-130449500D03*
D11*
X34798000Y-135382000D03*
D10*
X30398000Y-130449500D03*
%TD*%
%TO.C,U4*%
G36*
G01*
X55973000Y-138661000D02*
X55973000Y-138461000D01*
G75*
G02*
X56073000Y-138361000I100000J0D01*
G01*
X57348000Y-138361000D01*
G75*
G02*
X57448000Y-138461000I0J-100000D01*
G01*
X57448000Y-138661000D01*
G75*
G02*
X57348000Y-138761000I-100000J0D01*
G01*
X56073000Y-138761000D01*
G75*
G02*
X55973000Y-138661000I0J100000D01*
G01*
G37*
G36*
G01*
X55973000Y-138011000D02*
X55973000Y-137811000D01*
G75*
G02*
X56073000Y-137711000I100000J0D01*
G01*
X57348000Y-137711000D01*
G75*
G02*
X57448000Y-137811000I0J-100000D01*
G01*
X57448000Y-138011000D01*
G75*
G02*
X57348000Y-138111000I-100000J0D01*
G01*
X56073000Y-138111000D01*
G75*
G02*
X55973000Y-138011000I0J100000D01*
G01*
G37*
G36*
G01*
X55973000Y-137361000D02*
X55973000Y-137161000D01*
G75*
G02*
X56073000Y-137061000I100000J0D01*
G01*
X57348000Y-137061000D01*
G75*
G02*
X57448000Y-137161000I0J-100000D01*
G01*
X57448000Y-137361000D01*
G75*
G02*
X57348000Y-137461000I-100000J0D01*
G01*
X56073000Y-137461000D01*
G75*
G02*
X55973000Y-137361000I0J100000D01*
G01*
G37*
G36*
G01*
X55973000Y-136711000D02*
X55973000Y-136511000D01*
G75*
G02*
X56073000Y-136411000I100000J0D01*
G01*
X57348000Y-136411000D01*
G75*
G02*
X57448000Y-136511000I0J-100000D01*
G01*
X57448000Y-136711000D01*
G75*
G02*
X57348000Y-136811000I-100000J0D01*
G01*
X56073000Y-136811000D01*
G75*
G02*
X55973000Y-136711000I0J100000D01*
G01*
G37*
G36*
G01*
X55973000Y-136061000D02*
X55973000Y-135861000D01*
G75*
G02*
X56073000Y-135761000I100000J0D01*
G01*
X57348000Y-135761000D01*
G75*
G02*
X57448000Y-135861000I0J-100000D01*
G01*
X57448000Y-136061000D01*
G75*
G02*
X57348000Y-136161000I-100000J0D01*
G01*
X56073000Y-136161000D01*
G75*
G02*
X55973000Y-136061000I0J100000D01*
G01*
G37*
G36*
G01*
X55973000Y-135411000D02*
X55973000Y-135211000D01*
G75*
G02*
X56073000Y-135111000I100000J0D01*
G01*
X57348000Y-135111000D01*
G75*
G02*
X57448000Y-135211000I0J-100000D01*
G01*
X57448000Y-135411000D01*
G75*
G02*
X57348000Y-135511000I-100000J0D01*
G01*
X56073000Y-135511000D01*
G75*
G02*
X55973000Y-135411000I0J100000D01*
G01*
G37*
G36*
G01*
X55973000Y-134761000D02*
X55973000Y-134561000D01*
G75*
G02*
X56073000Y-134461000I100000J0D01*
G01*
X57348000Y-134461000D01*
G75*
G02*
X57448000Y-134561000I0J-100000D01*
G01*
X57448000Y-134761000D01*
G75*
G02*
X57348000Y-134861000I-100000J0D01*
G01*
X56073000Y-134861000D01*
G75*
G02*
X55973000Y-134761000I0J100000D01*
G01*
G37*
G36*
G01*
X55973000Y-134111000D02*
X55973000Y-133911000D01*
G75*
G02*
X56073000Y-133811000I100000J0D01*
G01*
X57348000Y-133811000D01*
G75*
G02*
X57448000Y-133911000I0J-100000D01*
G01*
X57448000Y-134111000D01*
G75*
G02*
X57348000Y-134211000I-100000J0D01*
G01*
X56073000Y-134211000D01*
G75*
G02*
X55973000Y-134111000I0J100000D01*
G01*
G37*
G36*
G01*
X55973000Y-133461000D02*
X55973000Y-133261000D01*
G75*
G02*
X56073000Y-133161000I100000J0D01*
G01*
X57348000Y-133161000D01*
G75*
G02*
X57448000Y-133261000I0J-100000D01*
G01*
X57448000Y-133461000D01*
G75*
G02*
X57348000Y-133561000I-100000J0D01*
G01*
X56073000Y-133561000D01*
G75*
G02*
X55973000Y-133461000I0J100000D01*
G01*
G37*
G36*
G01*
X55973000Y-132811000D02*
X55973000Y-132611000D01*
G75*
G02*
X56073000Y-132511000I100000J0D01*
G01*
X57348000Y-132511000D01*
G75*
G02*
X57448000Y-132611000I0J-100000D01*
G01*
X57448000Y-132811000D01*
G75*
G02*
X57348000Y-132911000I-100000J0D01*
G01*
X56073000Y-132911000D01*
G75*
G02*
X55973000Y-132811000I0J100000D01*
G01*
G37*
G36*
G01*
X50248000Y-132811000D02*
X50248000Y-132611000D01*
G75*
G02*
X50348000Y-132511000I100000J0D01*
G01*
X51623000Y-132511000D01*
G75*
G02*
X51723000Y-132611000I0J-100000D01*
G01*
X51723000Y-132811000D01*
G75*
G02*
X51623000Y-132911000I-100000J0D01*
G01*
X50348000Y-132911000D01*
G75*
G02*
X50248000Y-132811000I0J100000D01*
G01*
G37*
G36*
G01*
X50248000Y-133461000D02*
X50248000Y-133261000D01*
G75*
G02*
X50348000Y-133161000I100000J0D01*
G01*
X51623000Y-133161000D01*
G75*
G02*
X51723000Y-133261000I0J-100000D01*
G01*
X51723000Y-133461000D01*
G75*
G02*
X51623000Y-133561000I-100000J0D01*
G01*
X50348000Y-133561000D01*
G75*
G02*
X50248000Y-133461000I0J100000D01*
G01*
G37*
G36*
G01*
X50248000Y-134111000D02*
X50248000Y-133911000D01*
G75*
G02*
X50348000Y-133811000I100000J0D01*
G01*
X51623000Y-133811000D01*
G75*
G02*
X51723000Y-133911000I0J-100000D01*
G01*
X51723000Y-134111000D01*
G75*
G02*
X51623000Y-134211000I-100000J0D01*
G01*
X50348000Y-134211000D01*
G75*
G02*
X50248000Y-134111000I0J100000D01*
G01*
G37*
G36*
G01*
X50248000Y-134761000D02*
X50248000Y-134561000D01*
G75*
G02*
X50348000Y-134461000I100000J0D01*
G01*
X51623000Y-134461000D01*
G75*
G02*
X51723000Y-134561000I0J-100000D01*
G01*
X51723000Y-134761000D01*
G75*
G02*
X51623000Y-134861000I-100000J0D01*
G01*
X50348000Y-134861000D01*
G75*
G02*
X50248000Y-134761000I0J100000D01*
G01*
G37*
G36*
G01*
X50248000Y-135411000D02*
X50248000Y-135211000D01*
G75*
G02*
X50348000Y-135111000I100000J0D01*
G01*
X51623000Y-135111000D01*
G75*
G02*
X51723000Y-135211000I0J-100000D01*
G01*
X51723000Y-135411000D01*
G75*
G02*
X51623000Y-135511000I-100000J0D01*
G01*
X50348000Y-135511000D01*
G75*
G02*
X50248000Y-135411000I0J100000D01*
G01*
G37*
G36*
G01*
X50248000Y-136061000D02*
X50248000Y-135861000D01*
G75*
G02*
X50348000Y-135761000I100000J0D01*
G01*
X51623000Y-135761000D01*
G75*
G02*
X51723000Y-135861000I0J-100000D01*
G01*
X51723000Y-136061000D01*
G75*
G02*
X51623000Y-136161000I-100000J0D01*
G01*
X50348000Y-136161000D01*
G75*
G02*
X50248000Y-136061000I0J100000D01*
G01*
G37*
G36*
G01*
X50248000Y-136711000D02*
X50248000Y-136511000D01*
G75*
G02*
X50348000Y-136411000I100000J0D01*
G01*
X51623000Y-136411000D01*
G75*
G02*
X51723000Y-136511000I0J-100000D01*
G01*
X51723000Y-136711000D01*
G75*
G02*
X51623000Y-136811000I-100000J0D01*
G01*
X50348000Y-136811000D01*
G75*
G02*
X50248000Y-136711000I0J100000D01*
G01*
G37*
G36*
G01*
X50248000Y-137361000D02*
X50248000Y-137161000D01*
G75*
G02*
X50348000Y-137061000I100000J0D01*
G01*
X51623000Y-137061000D01*
G75*
G02*
X51723000Y-137161000I0J-100000D01*
G01*
X51723000Y-137361000D01*
G75*
G02*
X51623000Y-137461000I-100000J0D01*
G01*
X50348000Y-137461000D01*
G75*
G02*
X50248000Y-137361000I0J100000D01*
G01*
G37*
G36*
G01*
X50248000Y-138011000D02*
X50248000Y-137811000D01*
G75*
G02*
X50348000Y-137711000I100000J0D01*
G01*
X51623000Y-137711000D01*
G75*
G02*
X51723000Y-137811000I0J-100000D01*
G01*
X51723000Y-138011000D01*
G75*
G02*
X51623000Y-138111000I-100000J0D01*
G01*
X50348000Y-138111000D01*
G75*
G02*
X50248000Y-138011000I0J100000D01*
G01*
G37*
G36*
G01*
X50248000Y-138661000D02*
X50248000Y-138461000D01*
G75*
G02*
X50348000Y-138361000I100000J0D01*
G01*
X51623000Y-138361000D01*
G75*
G02*
X51723000Y-138461000I0J-100000D01*
G01*
X51723000Y-138661000D01*
G75*
G02*
X51623000Y-138761000I-100000J0D01*
G01*
X50348000Y-138761000D01*
G75*
G02*
X50248000Y-138661000I0J100000D01*
G01*
G37*
%TD*%
D12*
%TO.C,U3*%
X107964000Y-140666000D03*
X103364000Y-140666000D03*
X105664000Y-140666000D03*
D13*
X105664000Y-134366000D03*
%TD*%
D14*
%TO.C,U2*%
X96914000Y-142854000D03*
X96914000Y-141584000D03*
X96914000Y-140314000D03*
X96914000Y-139044000D03*
X96914000Y-137774000D03*
X96914000Y-136504000D03*
X96914000Y-135234000D03*
X96914000Y-133964000D03*
X96914000Y-132694000D03*
X96914000Y-131424000D03*
X96914000Y-130154000D03*
X96914000Y-128884000D03*
X96914000Y-127614000D03*
X96914000Y-126344000D03*
X96884000Y-125044000D03*
X96884000Y-123774000D03*
X96884000Y-122504000D03*
X96884000Y-121234000D03*
X96884000Y-119964000D03*
X78884000Y-119964000D03*
X78884000Y-121234000D03*
X78884000Y-122504000D03*
X78884000Y-123774000D03*
X78884000Y-125044000D03*
X78884000Y-126344000D03*
X78884000Y-127614000D03*
X78884000Y-128884000D03*
X78884000Y-130154000D03*
X78884000Y-131424000D03*
X78884000Y-132694000D03*
X78884000Y-133964000D03*
X78884000Y-135234000D03*
X78884000Y-136504000D03*
X78884000Y-137774000D03*
X78884000Y-139044000D03*
X78884000Y-140314000D03*
X78884000Y-141584000D03*
X78884000Y-142854000D03*
D15*
X87884000Y-136398000D03*
X86614000Y-136398000D03*
X85344000Y-136398000D03*
X85344000Y-135128000D03*
X86614000Y-135128000D03*
X87884000Y-135128000D03*
X87884000Y-133858000D03*
X86614000Y-133858000D03*
X85344000Y-133858000D03*
%TD*%
M02*
