M48
; DRILL file {KiCad (5.1.10)-1} date 08/09/21 16:21:58
; FORMAT={-:-/ absolute / metric / decimal}
; #@! TF.CreationDate,2021-08-09T16:21:58-03:00
; #@! TF.GenerationSoftware,Kicad,Pcbnew,(5.1.10)-1
; #@! TF.FileFunction,Plated,1,2,PTH
FMAT,2
METRIC
T1C0.800
T2C0.900
T3C0.950
T4C1.000
T5C3.000
%
G90
G05
T1
X105.974Y-99.092
X105.974Y-101.092
X110.038Y-88.956
X110.038Y-92.456
X112.832Y-103.124
X112.832Y-110.744
X113.086Y-95.758
X113.086Y-100.758
X114.864Y-114.3
X115.88Y-98.124
X115.88Y-103.124
X115.88Y-105.664
X115.88Y-110.664
X116.864Y-114.3
X118.276Y-118.474
X118.928Y-103.886
X118.928Y-111.506
X119.69Y-119.888
X121.214Y-98.044
X121.214Y-103.044
X123.246Y-122.428
X129.85Y-99.06
X129.85Y-102.56
X130.866Y-122.428
X137.724Y-94.996
X140.194Y-114.922
X140.194Y-116.722
X140.194Y-118.522
X141.224Y-94.996
X141.994Y-114.922
X141.994Y-116.722
X141.994Y-118.522
X142.804Y-99.314
X143.794Y-114.922
X143.794Y-116.722
X143.794Y-118.522
X145.09Y-90.678
X148.59Y-90.678
X150.424Y-99.314
T2
X144.328Y-97.028
X146.868Y-97.028
T3
X155.123Y-89.408
X155.123Y-91.908
X155.123Y-94.408
X155.123Y-96.908
T4
X116.134Y-95.758
X117.404Y-90.678
X118.674Y-95.758
X119.944Y-90.678
X121.214Y-95.758
X122.484Y-90.678
X123.754Y-95.758
X125.024Y-90.678
X126.294Y-95.758
X127.564Y-90.678
X128.834Y-95.758
X130.104Y-90.678
X131.374Y-95.758
X131.374Y-106.68
X131.374Y-109.22
X132.644Y-90.678
X133.914Y-95.758
X155.758Y-105.156
X155.758Y-107.696
X155.758Y-110.236
X155.758Y-112.776
X155.758Y-115.316
X155.758Y-117.856
X155.758Y-120.396
X155.758Y-122.936
T5
X109.022Y-115.928
X109.022Y-121.928
X113.722Y-118.928
T0
M30
