%TF.GenerationSoftware,KiCad,Pcbnew,5.1.6-c6e7f7d~87~ubuntu20.04.1*%
%TF.CreationDate,2021-01-23T09:42:22-03:00*%
%TF.ProjectId,Modulo-completo,4d6f6475-6c6f-42d6-936f-6d706c65746f,rev?*%
%TF.SameCoordinates,Original*%
%TF.FileFunction,Soldermask,Bot*%
%TF.FilePolarity,Negative*%
%FSLAX46Y46*%
G04 Gerber Fmt 4.6, Leading zero omitted, Abs format (unit mm)*
G04 Created by KiCad (PCBNEW 5.1.6-c6e7f7d~87~ubuntu20.04.1) date 2021-01-23 09:42:22*
%MOMM*%
%LPD*%
G01*
G04 APERTURE LIST*
%ADD10R,0.700000X1.800000*%
%ADD11R,7.600000X5.300000*%
%ADD12O,1.800000X1.800000*%
%ADD13R,1.800000X1.800000*%
%ADD14C,6.500000*%
%ADD15C,1.700000*%
%ADD16R,1.700000X1.700000*%
%ADD17C,4.000000*%
%ADD18R,1.600000X2.100000*%
%ADD19R,3.900000X2.100000*%
%ADD20O,1.700000X1.700000*%
%ADD21C,0.100000*%
%ADD22C,1.300000*%
%ADD23R,1.300000X1.300000*%
%ADD24O,3.100000X1.000000*%
%ADD25R,1.100000X1.100000*%
%ADD26C,2.100000*%
G04 APERTURE END LIST*
D10*
%TO.C,U1*%
X30398000Y-140314500D03*
X31198000Y-140314500D03*
X31998000Y-140314500D03*
X32798000Y-140314500D03*
X33598000Y-140314500D03*
X34398000Y-140314500D03*
X35198000Y-140314500D03*
X35998000Y-140314500D03*
X36798000Y-140314500D03*
X37598000Y-140314500D03*
X38398000Y-140314500D03*
X39198000Y-140314500D03*
X39198000Y-130449500D03*
X38398000Y-130449500D03*
X37598000Y-130449500D03*
X36798000Y-130449500D03*
X35998000Y-130449500D03*
X35198000Y-130449500D03*
X34398000Y-130449500D03*
X33598000Y-130449500D03*
X32798000Y-130449500D03*
X31998000Y-130449500D03*
X31198000Y-130449500D03*
D11*
X34798000Y-135382000D03*
D10*
X30398000Y-130449500D03*
%TD*%
D12*
%TO.C,J1*%
X100584000Y-142240000D03*
D13*
X100584000Y-144780000D03*
%TD*%
D14*
%TO.C,REF\u002A\u002A*%
X104902000Y-122174000D03*
%TD*%
%TO.C,REF\u002A\u002A*%
X33528000Y-147066000D03*
%TD*%
D15*
%TO.C,C8*%
X55570000Y-144526000D03*
D16*
X52070000Y-144526000D03*
%TD*%
D15*
%TO.C,C2*%
X34036000Y-121492000D03*
X34036000Y-126492000D03*
%TD*%
%TO.C,C1*%
X107148000Y-143764000D03*
D16*
X104648000Y-143764000D03*
%TD*%
D12*
%TO.C,J3*%
X100584000Y-132080000D03*
X100584000Y-134620000D03*
X100584000Y-137160000D03*
D13*
X100584000Y-139700000D03*
%TD*%
D17*
%TO.C,J2*%
X26162000Y-147246000D03*
X26162000Y-139446000D03*
X26162000Y-131646000D03*
G36*
G01*
X24418411Y-121846000D02*
X27905589Y-121846000D01*
G75*
G02*
X28162000Y-122102411I0J-256411D01*
G01*
X28162000Y-125589589D01*
G75*
G02*
X27905589Y-125846000I-256411J0D01*
G01*
X24418411Y-125846000D01*
G75*
G02*
X24162000Y-125589589I0J256411D01*
G01*
X24162000Y-122102411D01*
G75*
G02*
X24418411Y-121846000I256411J0D01*
G01*
G37*
%TD*%
%TO.C,U4*%
G36*
G01*
X55923000Y-138686000D02*
X55923000Y-138436000D01*
G75*
G02*
X56048000Y-138311000I125000J0D01*
G01*
X57373000Y-138311000D01*
G75*
G02*
X57498000Y-138436000I0J-125000D01*
G01*
X57498000Y-138686000D01*
G75*
G02*
X57373000Y-138811000I-125000J0D01*
G01*
X56048000Y-138811000D01*
G75*
G02*
X55923000Y-138686000I0J125000D01*
G01*
G37*
G36*
G01*
X55923000Y-138036000D02*
X55923000Y-137786000D01*
G75*
G02*
X56048000Y-137661000I125000J0D01*
G01*
X57373000Y-137661000D01*
G75*
G02*
X57498000Y-137786000I0J-125000D01*
G01*
X57498000Y-138036000D01*
G75*
G02*
X57373000Y-138161000I-125000J0D01*
G01*
X56048000Y-138161000D01*
G75*
G02*
X55923000Y-138036000I0J125000D01*
G01*
G37*
G36*
G01*
X55923000Y-137386000D02*
X55923000Y-137136000D01*
G75*
G02*
X56048000Y-137011000I125000J0D01*
G01*
X57373000Y-137011000D01*
G75*
G02*
X57498000Y-137136000I0J-125000D01*
G01*
X57498000Y-137386000D01*
G75*
G02*
X57373000Y-137511000I-125000J0D01*
G01*
X56048000Y-137511000D01*
G75*
G02*
X55923000Y-137386000I0J125000D01*
G01*
G37*
G36*
G01*
X55923000Y-136736000D02*
X55923000Y-136486000D01*
G75*
G02*
X56048000Y-136361000I125000J0D01*
G01*
X57373000Y-136361000D01*
G75*
G02*
X57498000Y-136486000I0J-125000D01*
G01*
X57498000Y-136736000D01*
G75*
G02*
X57373000Y-136861000I-125000J0D01*
G01*
X56048000Y-136861000D01*
G75*
G02*
X55923000Y-136736000I0J125000D01*
G01*
G37*
G36*
G01*
X55923000Y-136086000D02*
X55923000Y-135836000D01*
G75*
G02*
X56048000Y-135711000I125000J0D01*
G01*
X57373000Y-135711000D01*
G75*
G02*
X57498000Y-135836000I0J-125000D01*
G01*
X57498000Y-136086000D01*
G75*
G02*
X57373000Y-136211000I-125000J0D01*
G01*
X56048000Y-136211000D01*
G75*
G02*
X55923000Y-136086000I0J125000D01*
G01*
G37*
G36*
G01*
X55923000Y-135436000D02*
X55923000Y-135186000D01*
G75*
G02*
X56048000Y-135061000I125000J0D01*
G01*
X57373000Y-135061000D01*
G75*
G02*
X57498000Y-135186000I0J-125000D01*
G01*
X57498000Y-135436000D01*
G75*
G02*
X57373000Y-135561000I-125000J0D01*
G01*
X56048000Y-135561000D01*
G75*
G02*
X55923000Y-135436000I0J125000D01*
G01*
G37*
G36*
G01*
X55923000Y-134786000D02*
X55923000Y-134536000D01*
G75*
G02*
X56048000Y-134411000I125000J0D01*
G01*
X57373000Y-134411000D01*
G75*
G02*
X57498000Y-134536000I0J-125000D01*
G01*
X57498000Y-134786000D01*
G75*
G02*
X57373000Y-134911000I-125000J0D01*
G01*
X56048000Y-134911000D01*
G75*
G02*
X55923000Y-134786000I0J125000D01*
G01*
G37*
G36*
G01*
X55923000Y-134136000D02*
X55923000Y-133886000D01*
G75*
G02*
X56048000Y-133761000I125000J0D01*
G01*
X57373000Y-133761000D01*
G75*
G02*
X57498000Y-133886000I0J-125000D01*
G01*
X57498000Y-134136000D01*
G75*
G02*
X57373000Y-134261000I-125000J0D01*
G01*
X56048000Y-134261000D01*
G75*
G02*
X55923000Y-134136000I0J125000D01*
G01*
G37*
G36*
G01*
X55923000Y-133486000D02*
X55923000Y-133236000D01*
G75*
G02*
X56048000Y-133111000I125000J0D01*
G01*
X57373000Y-133111000D01*
G75*
G02*
X57498000Y-133236000I0J-125000D01*
G01*
X57498000Y-133486000D01*
G75*
G02*
X57373000Y-133611000I-125000J0D01*
G01*
X56048000Y-133611000D01*
G75*
G02*
X55923000Y-133486000I0J125000D01*
G01*
G37*
G36*
G01*
X55923000Y-132836000D02*
X55923000Y-132586000D01*
G75*
G02*
X56048000Y-132461000I125000J0D01*
G01*
X57373000Y-132461000D01*
G75*
G02*
X57498000Y-132586000I0J-125000D01*
G01*
X57498000Y-132836000D01*
G75*
G02*
X57373000Y-132961000I-125000J0D01*
G01*
X56048000Y-132961000D01*
G75*
G02*
X55923000Y-132836000I0J125000D01*
G01*
G37*
G36*
G01*
X50198000Y-132836000D02*
X50198000Y-132586000D01*
G75*
G02*
X50323000Y-132461000I125000J0D01*
G01*
X51648000Y-132461000D01*
G75*
G02*
X51773000Y-132586000I0J-125000D01*
G01*
X51773000Y-132836000D01*
G75*
G02*
X51648000Y-132961000I-125000J0D01*
G01*
X50323000Y-132961000D01*
G75*
G02*
X50198000Y-132836000I0J125000D01*
G01*
G37*
G36*
G01*
X50198000Y-133486000D02*
X50198000Y-133236000D01*
G75*
G02*
X50323000Y-133111000I125000J0D01*
G01*
X51648000Y-133111000D01*
G75*
G02*
X51773000Y-133236000I0J-125000D01*
G01*
X51773000Y-133486000D01*
G75*
G02*
X51648000Y-133611000I-125000J0D01*
G01*
X50323000Y-133611000D01*
G75*
G02*
X50198000Y-133486000I0J125000D01*
G01*
G37*
G36*
G01*
X50198000Y-134136000D02*
X50198000Y-133886000D01*
G75*
G02*
X50323000Y-133761000I125000J0D01*
G01*
X51648000Y-133761000D01*
G75*
G02*
X51773000Y-133886000I0J-125000D01*
G01*
X51773000Y-134136000D01*
G75*
G02*
X51648000Y-134261000I-125000J0D01*
G01*
X50323000Y-134261000D01*
G75*
G02*
X50198000Y-134136000I0J125000D01*
G01*
G37*
G36*
G01*
X50198000Y-134786000D02*
X50198000Y-134536000D01*
G75*
G02*
X50323000Y-134411000I125000J0D01*
G01*
X51648000Y-134411000D01*
G75*
G02*
X51773000Y-134536000I0J-125000D01*
G01*
X51773000Y-134786000D01*
G75*
G02*
X51648000Y-134911000I-125000J0D01*
G01*
X50323000Y-134911000D01*
G75*
G02*
X50198000Y-134786000I0J125000D01*
G01*
G37*
G36*
G01*
X50198000Y-135436000D02*
X50198000Y-135186000D01*
G75*
G02*
X50323000Y-135061000I125000J0D01*
G01*
X51648000Y-135061000D01*
G75*
G02*
X51773000Y-135186000I0J-125000D01*
G01*
X51773000Y-135436000D01*
G75*
G02*
X51648000Y-135561000I-125000J0D01*
G01*
X50323000Y-135561000D01*
G75*
G02*
X50198000Y-135436000I0J125000D01*
G01*
G37*
G36*
G01*
X50198000Y-136086000D02*
X50198000Y-135836000D01*
G75*
G02*
X50323000Y-135711000I125000J0D01*
G01*
X51648000Y-135711000D01*
G75*
G02*
X51773000Y-135836000I0J-125000D01*
G01*
X51773000Y-136086000D01*
G75*
G02*
X51648000Y-136211000I-125000J0D01*
G01*
X50323000Y-136211000D01*
G75*
G02*
X50198000Y-136086000I0J125000D01*
G01*
G37*
G36*
G01*
X50198000Y-136736000D02*
X50198000Y-136486000D01*
G75*
G02*
X50323000Y-136361000I125000J0D01*
G01*
X51648000Y-136361000D01*
G75*
G02*
X51773000Y-136486000I0J-125000D01*
G01*
X51773000Y-136736000D01*
G75*
G02*
X51648000Y-136861000I-125000J0D01*
G01*
X50323000Y-136861000D01*
G75*
G02*
X50198000Y-136736000I0J125000D01*
G01*
G37*
G36*
G01*
X50198000Y-137386000D02*
X50198000Y-137136000D01*
G75*
G02*
X50323000Y-137011000I125000J0D01*
G01*
X51648000Y-137011000D01*
G75*
G02*
X51773000Y-137136000I0J-125000D01*
G01*
X51773000Y-137386000D01*
G75*
G02*
X51648000Y-137511000I-125000J0D01*
G01*
X50323000Y-137511000D01*
G75*
G02*
X50198000Y-137386000I0J125000D01*
G01*
G37*
G36*
G01*
X50198000Y-138036000D02*
X50198000Y-137786000D01*
G75*
G02*
X50323000Y-137661000I125000J0D01*
G01*
X51648000Y-137661000D01*
G75*
G02*
X51773000Y-137786000I0J-125000D01*
G01*
X51773000Y-138036000D01*
G75*
G02*
X51648000Y-138161000I-125000J0D01*
G01*
X50323000Y-138161000D01*
G75*
G02*
X50198000Y-138036000I0J125000D01*
G01*
G37*
G36*
G01*
X50198000Y-138686000D02*
X50198000Y-138436000D01*
G75*
G02*
X50323000Y-138311000I125000J0D01*
G01*
X51648000Y-138311000D01*
G75*
G02*
X51773000Y-138436000I0J-125000D01*
G01*
X51773000Y-138686000D01*
G75*
G02*
X51648000Y-138811000I-125000J0D01*
G01*
X50323000Y-138811000D01*
G75*
G02*
X50198000Y-138686000I0J125000D01*
G01*
G37*
%TD*%
D18*
%TO.C,U3*%
X107964000Y-140666000D03*
X103364000Y-140666000D03*
X105664000Y-140666000D03*
D19*
X105664000Y-134366000D03*
%TD*%
D20*
%TO.C,R7*%
X63500000Y-136652000D03*
D15*
X63500000Y-126492000D03*
%TD*%
D20*
%TO.C,R6*%
X63500000Y-149352000D03*
D15*
X63500000Y-139192000D03*
%TD*%
D20*
%TO.C,R5*%
X42926000Y-134874000D03*
D15*
X42926000Y-124714000D03*
%TD*%
D20*
%TO.C,R4*%
X43942000Y-137160000D03*
D15*
X43942000Y-147320000D03*
%TD*%
D21*
%TO.C,JP2*%
G36*
X63247755Y-128523961D02*
G01*
X63257134Y-128526806D01*
X63265779Y-128531427D01*
X63273355Y-128537645D01*
X63279603Y-128545265D01*
X63779603Y-129295265D01*
X63784214Y-129303914D01*
X63787049Y-129313297D01*
X63788000Y-129323052D01*
X63787029Y-129332806D01*
X63784174Y-129342182D01*
X63779603Y-129350735D01*
X63279603Y-130100735D01*
X63273392Y-130108318D01*
X63265822Y-130114544D01*
X63257182Y-130119174D01*
X63247806Y-130122029D01*
X63238000Y-130123000D01*
X62238000Y-130123000D01*
X62228245Y-130122039D01*
X62218866Y-130119194D01*
X62210221Y-130114573D01*
X62202645Y-130108355D01*
X62196427Y-130100779D01*
X62191806Y-130092134D01*
X62188961Y-130082755D01*
X62188000Y-130073000D01*
X62188000Y-128573000D01*
X62188961Y-128563245D01*
X62191806Y-128553866D01*
X62196427Y-128545221D01*
X62202645Y-128537645D01*
X62210221Y-128531427D01*
X62218866Y-128526806D01*
X62228245Y-128523961D01*
X62238000Y-128523000D01*
X63238000Y-128523000D01*
X63247755Y-128523961D01*
G37*
G36*
X64697755Y-128523961D02*
G01*
X64707134Y-128526806D01*
X64715779Y-128531427D01*
X64723355Y-128537645D01*
X64729573Y-128545221D01*
X64734194Y-128553866D01*
X64737039Y-128563245D01*
X64738000Y-128573000D01*
X64738000Y-130073000D01*
X64737039Y-130082755D01*
X64734194Y-130092134D01*
X64729573Y-130100779D01*
X64723355Y-130108355D01*
X64715779Y-130114573D01*
X64707134Y-130119194D01*
X64697755Y-130122039D01*
X64688000Y-130123000D01*
X63538000Y-130123000D01*
X63528245Y-130122039D01*
X63518866Y-130119194D01*
X63510221Y-130114573D01*
X63502645Y-130108355D01*
X63496427Y-130100779D01*
X63491806Y-130092134D01*
X63488961Y-130082755D01*
X63488000Y-130073000D01*
X63488961Y-130063245D01*
X63491806Y-130053866D01*
X63496397Y-130045265D01*
X63977907Y-129323000D01*
X63496397Y-128600735D01*
X63491786Y-128592086D01*
X63488951Y-128582703D01*
X63488000Y-128572948D01*
X63488971Y-128563194D01*
X63491826Y-128553818D01*
X63496456Y-128545178D01*
X63502682Y-128537608D01*
X63510265Y-128531397D01*
X63518914Y-128526786D01*
X63528297Y-128523951D01*
X63538000Y-128523000D01*
X64688000Y-128523000D01*
X64697755Y-128523961D01*
G37*
%TD*%
D15*
%TO.C,C18*%
X60198000Y-131652000D03*
X60198000Y-136652000D03*
%TD*%
%TO.C,C17*%
X45720000Y-129112000D03*
X45720000Y-134112000D03*
%TD*%
%TO.C,C15*%
X60198000Y-144192000D03*
X60198000Y-139192000D03*
%TD*%
%TO.C,C14*%
X48260000Y-129112000D03*
X48260000Y-134112000D03*
%TD*%
%TO.C,C13*%
X47752000Y-147240000D03*
X47752000Y-142240000D03*
%TD*%
D22*
%TO.C,C12*%
X54356000Y-129056000D03*
D23*
X54356000Y-130556000D03*
%TD*%
D22*
%TO.C,C11*%
X47752000Y-136676000D03*
D23*
X47752000Y-138176000D03*
%TD*%
D24*
%TO.C,U2*%
X96914000Y-142854000D03*
X96914000Y-141584000D03*
X96914000Y-140314000D03*
X96914000Y-139044000D03*
X96914000Y-137774000D03*
X96914000Y-136504000D03*
X96914000Y-135234000D03*
X96914000Y-133964000D03*
X96914000Y-132694000D03*
X96914000Y-131424000D03*
X96914000Y-130154000D03*
X96914000Y-128884000D03*
X96914000Y-127614000D03*
X96914000Y-126344000D03*
X96884000Y-125044000D03*
X96884000Y-123774000D03*
X96884000Y-122504000D03*
X96884000Y-121234000D03*
X96884000Y-119964000D03*
X78884000Y-119964000D03*
X78884000Y-121234000D03*
X78884000Y-122504000D03*
X78884000Y-123774000D03*
X78884000Y-125044000D03*
X78884000Y-126344000D03*
X78884000Y-127614000D03*
X78884000Y-128884000D03*
X78884000Y-130154000D03*
X78884000Y-131424000D03*
X78884000Y-132694000D03*
X78884000Y-133964000D03*
X78884000Y-135234000D03*
X78884000Y-136504000D03*
X78884000Y-137774000D03*
X78884000Y-139044000D03*
X78884000Y-140314000D03*
X78884000Y-141584000D03*
X78884000Y-142854000D03*
D25*
X87884000Y-136398000D03*
X86614000Y-136398000D03*
X85344000Y-136398000D03*
X85344000Y-135128000D03*
X86614000Y-135128000D03*
X87884000Y-135128000D03*
X87884000Y-133858000D03*
X86614000Y-133858000D03*
X85344000Y-133858000D03*
%TD*%
D26*
%TO.C,SW1*%
X67056000Y-135232000D03*
X71556000Y-135232000D03*
X67056000Y-141732000D03*
X71556000Y-141732000D03*
%TD*%
D20*
%TO.C,R3*%
X75184000Y-139192000D03*
D15*
X75184000Y-146812000D03*
%TD*%
D20*
%TO.C,R2*%
X71120000Y-122428000D03*
D15*
X60960000Y-122428000D03*
%TD*%
D20*
%TO.C,R1*%
X57404000Y-125984000D03*
D15*
X47244000Y-125984000D03*
%TD*%
D12*
%TO.C,JP1*%
X100584000Y-129540000D03*
D13*
X100584000Y-127000000D03*
%TD*%
D15*
%TO.C,C10*%
X66628000Y-145288000D03*
X71628000Y-145288000D03*
%TD*%
%TO.C,C7*%
X106680000Y-126826000D03*
X106680000Y-131826000D03*
%TD*%
%TO.C,C6*%
X53340000Y-120436000D03*
D16*
X53340000Y-122936000D03*
%TD*%
D15*
%TO.C,C5*%
X40640000Y-147748000D03*
X40640000Y-142748000D03*
%TD*%
%TO.C,C4*%
X37084000Y-121492000D03*
X37084000Y-126492000D03*
%TD*%
%TO.C,C3*%
X46736000Y-120436000D03*
D16*
X46736000Y-122936000D03*
%TD*%
M02*
